<svg viewBox="0 0 256 256" xml:space="preserve" xmlns="http://www.w3.org/2000/svg"><path d="M128 169.174a6.378 6.378 0 0 1-4.525-1.875l-56.747-56.747a6.398 6.398 0 0 1 0-9.05 6.398 6.398 0 0 1 9.05 0L128 153.722l52.223-52.22a6.396 6.396 0 0 1 9.049 0 6.398 6.398 0 0 1 0 9.05l-56.746 56.747a6.379 6.379 0 0 1-4.526 1.875zM256 128C256 57.42 198.58 0 128 0S0 57.42 0 128s57.42 128 128 128 128-57.42 128-128zm-12.8 0c0 63.521-51.679 115.2-115.2 115.2-63.522 0-115.2-51.679-115.2-115.2C12.8 64.478 64.478 12.8 128 12.8c63.521 0 115.2 51.678 115.2 115.2z" fill="#8bc34a" class="fill-000000"></path></svg>